{"title":"maroon_5_one _more_night_mp4_video","uid":7742658,"size":6437332,"categoryP":"video","categoryS":"music_videos","magnet":"?xt=urn:btih:8febecda1b5868d6af03a9f57be67b2febcad362&amp;dn=maroon_5_one+_more_night_mp4_video&amp;tr=udp%3A%2F%2Ftracker.openbittorrent.com%3A80&amp;tr=udp%3A%2F%2Fopen.demonii.com%3A1337&amp;tr=udp%3A%2F%2Ftracker.coppersurfer.tk%3A6969&amp;tr=udp%3A%2F%2Fexodus.desync.com%3A6969","seeders":1,"leechers":1,"uploader":"arya84","files":1,"time":1350669052,"description":"Format                                   : MPEG-4\nFormat profile                           : Base Media\nCodec ID                                 : isom\nFile size                                : 6.14 MiB\nDuration                                 : 3mn 43s\nOverall bit rate                         : 231 Kbps\nEncoded date                             : UTC 2012-06-14 00:16:03\nTagged date                              : UTC 2012-06-14 00:16:03\nWriting application                      : Lavf53.24.2\n\nVideo\nID                                       : 1\nFormat                                   : AVC\nFormat/Info                              : Advanced Video Codec\nFormat profile                           : &lt;a class=&quot;__cf_email__&quot; href=&quot;/cdn-cgi/l/email-protection&quot; data-cfemail=&quot;6129080609212d524f51&quot;&gt;[email&amp;#160;protected]&lt;/a&gt;&lt;script cf-hash='f9e31' type=&quot;text/javascript&quot;&gt;\n/* &lt;![CDATA[ */!function(){try{var t=&quot;currentScript&quot;in document?document.currentScript:function(){for(var t=document.getElementsByTagName(&quot;script&quot;),e=t.length;e--;)if(t[e].getAttribute(&quot;cf-hash&quot;))return t[e]}();if(t&amp;&amp;t.previousSibling){var e,r,n,i,c=t.previousSibling,a=c.getAttribute(&quot;data-cfemail&quot;);if(a){for(e=&quot;&quot;,r=parseInt(a.substr(0,2),16),n=2;a.length-n;n+=2)i=parseInt(a.substr(n,2),16)^r,e+=String.fromCharCode(i);e=document.createTextNode(e),c.parentNode.replaceChild(e,c)}}}catch(u){}}();/* ]]&gt; */&lt;/script&gt;\nFormat settings, CABAC                   : No\nFormat settings, ReFrames                : 4 frames\nCodec ID                                 : avc1\nCodec ID/Info                            : Advanced Video Coding\nDuration                                 : 3mn 42s\nBit rate                                 : 180 Kbps\nWidth                                    : 320 pixels\nHeight                                   : 192 pixels\nDisplay aspect ratio                     : 16:9\nFrame rate mode                          : Constant\nFrame rate                               : 23.976 fps\nColor space                              : YUV\nChroma subsampling                       : 4:2:0\nBit depth                                : 8 bits\nScan type                                : Progressive\nBits/(Pixel*Frame)                       : 0.122\nStream size                              : 4.77 MiB (78%)\nWriting library                          : x264 core 124\n\nAudio\nID                                       : 2\nFormat                                   : AAC\nFormat/Info                              : Advanced Audio Codec\nFormat profile                           : HE-AACv2 / HE-AAC / LC\nCodec ID                                 : 40\nDuration                                 : 3mn 43s\nDuration_LastFrame                       : -12ms\nBit rate mode                            : Constant\nBit rate                                 : 48.0 Kbps\nChannel(s)                               : 2 channels / 1 channel / 1 channel\nChannel positions                        : Front: L R / Front: C / Front: C\nSampling rate                            : 44.1 KHz / 44.1 KHz / 22.05 KHz\nCompression mode                         : Lossy\nDelay relative to video                  : -2s 2ms\nStream size                              : 1.25 MiB (20%)\n","torrent":{"xt":"urn:btih:8febecda1b5868d6af03a9f57be67b2febcad362","amp;dn":"maroon_5_one+_more_night_mp4_video","amp;tr":["udp%3A%2F%2Ftracker.openbittorrent.com%3A80","udp%3A%2F%2Fopen.demonii.com%3A1337","udp%3A%2F%2Ftracker.coppersurfer.tk%3A6969","udp%3A%2F%2Fexodus.desync.com%3A6969"],"infoHash":"8febecda1b5868d6af03a9f57be67b2febcad362","infoHashBuffer":{"type":"Buffer","data":[143,235,236,218,27,88,104,214,175,3,169,245,123,230,123,47,235,202,211,98]},"announce":[],"urlList":[]}}